PathFileType   4   (X/Y/Z)
DataRate	CameraRate	NumFrames	NumMarkers	Units	OrigDataRate	OrigDataStartFrame	OrigNumFrames
120.0	120.0	9	37	mm	120.0	63	125
Frame#	Time	midhip	hip_r	hip_l	knee_r	knee_l	ankle_r	ankle_l	midasis	asis_r	asis_l	psis_r	psis_l	epicondLat_r	epicondLat_l	epicondMed_r	epicondMed_l	malleolusLat_r	malleolusLat_l	malleolusMedv_r	malleolusMedv_l	neck	subclavicle_r	subclavicle_l	sternalnotch	xyphoidprocess	thighwand_r	thighwand_l	upperleg1_r	upperleg1_l	upperleg2_r	upperleg2_l	shankwand_r	shankwand_l	lowerleg1_r	lowerleg1_l	toe_r	toe_l
 	 	X1	Y1	Z1	X2	Y2	Z2	X3	Y3	Z3	X4	Y4	Z4	X5	Y5	Z5	X6	Y6	Z6	X7	Y7	Z7	X8	Y8	Z8	X9	Y9	Z9	X10	Y10	Z10	X11	Y11	Z11	X12	Y12	Z12	X13	Y13	Z13	X14	Y14	Z14	X15	Y15	Z15	X16	Y16	Z16	X17	Y17	Z17	X18	Y18	Z18	X19	Y19	Z19	X20	Y20	Z20	X21	Y21	Z21	X22	Y22	Z22	X23	Y23	Z23	X24	Y24	Z24	X25	Y25	Z25	X26	Y26	Z26	X27	Y27	Z27	X28	Y28	Z28	X29	Y29	Z29	X30	Y30	Z30	X31	Y31	Z31	X32	Y32	Z32	X33	Y33	Z33	X34	Y34	Z34	X35	Y35	Z35	X36	Y36	Z36	X37	Y37	Z37

	63	0.64167	613.073	757.801	-251.550	596.222	764.226	-171.950	591.784	758.580	-327.414	761.191	417.447	-196.427	517.532	404.268	-336.981	798.031	60.692	-194.588	271.065	126.607	-321.421	721.602	833.599	-255.946	725.138	838.096	-132.090	718.067	829.102	-379.802	478.947	905.222	-219.881	475.750	903.600	-274.555	772.983	418.079	-125.909	511.315	407.492	-408.137	743.746	416.166	-268.685	523.513	400.633	-247.022	795.276	60.606	-156.187	258.303	135.906	-357.627	800.655	69.471	-231.707	275.751	145.855	-280.706	496.096	1322.820	-259.752	627.727	1262.359	-221.533	627.189	1266.761	-303.760	610.820	1258.866	-274.945	667.225	1188.495	-277.961	848.530	618.743	-131.134	736.607	551.454	-353.665	804.859	624.204	-145.316	693.022	575.696	-356.011	811.523	547.777	-155.304	659.752	508.883	-352.172	873.098	213.322	-181.737	325.486	217.155	-430.132	826.798	214.622	-187.671	331.927	228.332	-383.919	908.619	46.752	-195.985	331.700	49.106	-321.022
	64	0.65000	624.359	759.163	-249.231	607.009	765.945	-169.785	603.372	759.261	-325.228	768.553	418.070	-196.178	534.308	402.359	-339.038	798.166	60.730	-194.869	280.806	131.816	-322.475	732.361	835.566	-253.619	735.248	840.872	-130.221	729.473	830.260	-377.016	488.937	905.950	-219.538	486.111	903.832	-274.223	781.097	418.554	-125.789	528.553	406.227	-410.201	748.629	418.593	-268.090	542.981	396.426	-248.054	795.925	60.685	-156.434	268.168	141.444	-358.639	799.573	69.577	-232.018	286.603	150.365	-281.752	506.180	1324.037	-257.877	637.632	1264.109	-220.065	636.715	1268.191	-302.186	620.553	1260.214	-273.672	676.982	1190.085	-276.332	858.203	619.643	-131.518	751.292	553.613	-352.576	814.012	625.583	-145.313	707.191	577.090	-355.088	819.736	549.310	-155.602	676.439	509.970	-351.827	876.538	211.656	-183.003	337.050	220.580	-431.340	829.963	213.719	-188.043	344.429	231.469	-385.068	909.190	46.333	-196.400	335.472	49.395	-320.928
	65	0.65833	635.488	760.585	-246.883	617.633	767.729	-167.607	614.817	759.976	-323.018	775.258	418.567	-195.908	551.615	400.356	-341.145	798.111	60.768	-195.115	291.622	137.014	-323.550	742.936	837.621	-251.289	745.163	843.752	-128.386	740.709	831.489	-374.192	498.780	906.640	-219.126	496.295	904.081	-273.804	788.608	418.900	-125.666	546.273	404.882	-412.301	753.882	420.292	-267.638	562.301	391.949	-249.288	796.377	60.742	-156.654	279.106	146.958	-359.670	798.828	69.964	-232.327	298.048	155.289	-282.814	516.287	1325.238	-256.641	647.610	1265.658	-218.989	646.120	1269.640	-301.124	630.267	1261.593	-272.438	686.644	1191.605	-275.446	867.555	620.194	-132.052	766.111	556.007	-351.556	822.841	626.274	-145.334	721.045	578.129	-353.979	827.960	550.260	-156.056	692.734	510.998	-351.516	879.614	210.107	-184.215	349.462	223.902	-432.541	833.337	213.547	-188.713	357.482	234.674	-386.359	909.603	46.112	-196.737	339.881	50.117	-320.822
	66	0.66667	646.426	762.024	-244.511	628.070	769.531	-165.447	626.067	760.708	-320.813	781.235	418.938	-195.572	569.356	398.322	-343.233	797.979	60.800	-195.318	303.425	142.210	-324.638	753.313	839.692	-248.993	754.891	846.643	-126.590	751.734	832.742	-371.395	508.479	907.294	-218.646	506.284	904.363	-273.262	795.385	419.098	-125.486	564.360	403.504	-414.369	761.505	420.262	-267.351	579.073	390.101	-251.720	796.688	60.767	-156.840	291.044	152.444	-360.725	798.762	70.116	-232.597	311.091	159.826	-284.087	526.041	1326.503	-255.683	657.839	1266.957	-217.948	655.557	1270.990	-300.341	639.976	1262.946	-271.243	696.404	1192.976	-274.948	876.521	620.278	-132.581	781.001	558.633	-350.625	830.834	626.799	-145.774	735.991	579.643	-353.469	836.249	550.345	-156.647	708.681	511.718	-351.684	882.344	208.671	-185.222	362.700	227.130	-433.711	836.619	213.427	-189.660	371.536	237.378	-388.122	909.893	45.993	-196.991	345.197	51.443	-320.777
	67	0.67500	657.105	763.446	-242.182	638.310	771.303	-163.332	637.073	761.447	-318.644	786.451	419.186	-195.132	587.437	396.335	-345.247	797.864	60.827	-195.486	316.101	147.429	-325.704	763.484	841.715	-246.771	764.455	849.452	-124.838	762.513	833.977	-368.703	518.044	907.923	-218.095	516.067	904.691	-272.580	801.339	419.134	-125.199	582.706	402.159	-416.352	768.854	419.610	-266.527	596.416	388.576	-254.326	796.911	60.758	-156.998	303.886	157.912	-361.775	799.304	69.783	-232.794	325.642	163.215	-285.490	536.022	1327.618	-254.603	667.923	1268.314	-216.912	665.251	1272.204	-299.501	649.685	1264.267	-270.138	706.295	1194.273	-274.055	885.054	619.820	-132.966	795.910	561.501	-349.799	838.546	626.994	-146.296	751.415	581.537	-353.244	844.009	550.147	-156.858	725.172	512.542	-351.991	884.752	207.329	-185.920	376.717	230.281	-434.825	839.473	212.810	-190.565	386.956	239.603	-389.590	910.083	45.919	-197.174	351.728	53.495	-320.884
	68	0.68333	667.497	764.827	-239.970	648.350	773.001	-161.287	647.792	762.190	-316.540	790.921	419.318	-194.557	605.789	394.491	-347.138	797.827	60.849	-195.637	329.544	152.682	-326.678	773.446	843.631	-244.659	773.882	852.094	-123.127	773.009	835.168	-366.190	527.494	908.543	-217.475	525.655	905.074	-271.768	806.443	419.010	-124.762	601.231	400.926	-418.202	772.742	419.894	-265.148	615.450	385.384	-257.098	797.090	60.719	-157.144	317.529	163.355	-362.761	799.069	69.675	-232.856	339.505	167.438	-286.566	545.969	1328.720	-253.329	677.655	1269.679	-215.815	674.786	1273.266	-298.436	659.382	1265.553	-269.125	715.885	1195.425	-272.789	893.135	618.809	-133.091	810.792	564.630	-349.096	846.760	626.465	-146.342	766.321	583.369	-352.750	850.767	549.732	-156.498	741.816	513.432	-352.355	886.859	206.058	-186.265	391.456	233.367	-435.860	841.092	211.957	-190.561	402.287	242.309	-390.431	910.193	45.859	-197.299	359.765	56.300	-321.237
	69	0.69167	677.627	766.133	-237.898	658.185	774.587	-159.342	658.183	762.944	-314.535	794.717	419.354	-193.826	624.375	392.891	-348.874	797.894	60.870	-195.784	343.675	157.947	-327.476	783.195	845.397	-242.689	783.196	854.493	-121.456	783.193	836.302	-363.922	536.844	909.178	-216.792	535.071	905.514	-270.860	810.734	418.746	-124.146	619.893	399.890	-419.889	774.467	420.908	-263.708	636.488	380.305	-259.648	797.253	60.654	-157.289	331.890	168.737	-363.600	798.063	70.182	-232.837	353.200	172.296	-287.369	555.420	1329.982	-251.949	687.301	1271.011	-214.772	684.568	1274.491	-297.329	669.043	1266.781	-268.163	725.683	1196.714	-271.554	900.766	617.295	-132.871	825.604	568.038	-348.528	855.126	625.546	-145.965	779.817	585.130	-352.107	856.740	548.771	-155.796	758.112	514.559	-352.739	888.692	204.849	-186.271	406.861	236.389	-436.789	842.315	211.234	-189.604	417.908	245.392	-390.824	910.241	45.796	-197.376	369.536	59.771	-321.913
	70	0.70000	687.493	767.331	-235.971	667.811	776.026	-157.533	668.220	763.719	-312.674	797.960	419.327	-192.946	643.166	391.629	-350.451	798.049	60.893	-195.931	358.456	163.159	-328.020	792.732	846.979	-240.891	792.412	856.582	-119.836	793.052	837.377	-361.946	546.105	909.847	-216.052	544.341	906.011	-269.906	814.309	418.382	-123.347	638.672	399.136	-421.414	777.357	421.525	-262.676	658.459	375.192	-262.197	797.407	60.572	-157.437	346.918	173.984	-364.213	797.492	70.759	-232.872	368.023	177.113	-288.067	565.049	1331.177	-250.581	697.057	1272.241	-214.225	694.327	1276.133	-296.428	678.619	1267.970	-267.271	735.569	1198.301	-271.230	907.959	615.377	-132.261	840.303	571.733	-348.104	862.813	624.726	-145.345	792.912	586.895	-351.862	862.551	547.384	-155.012	774.503	515.882	-353.291	890.287	203.703	-185.994	422.893	239.333	-437.581	843.909	210.612	-188.546	434.476	248.368	-391.426	910.245	45.719	-197.406	381.182	63.723	-322.942
	71	0.70833	697.058	768.420	-234.195	677.227	777.286	-155.907	677.896	764.523	-311.010	800.803	419.278	-191.950	662.126	390.781	-351.890	798.254	60.923	-196.074	373.895	168.204	-328.255	802.062	848.357	-239.295	801.540	858.314	-118.291	802.584	838.400	-360.298	555.283	910.569	-215.260	553.494	906.554	-268.966	817.305	417.971	-122.393	657.553	398.730	-422.799	779.237	421.672	-260.864	679.703	371.234	-265.798	797.546	60.485	-157.583	362.597	178.983	-364.537	797.710	70.844	-232.978	383.928	182.438	-288.527	574.620	1332.269	-249.490	706.822	1273.103	-213.375	703.609	1277.469	-295.681	688.078	1269.137	-266.471	744.997	1199.491	-271.092	914.730	613.174	-131.258	854.852	575.712	-347.815	869.314	623.319	-144.094	806.731	589.077	-351.912	867.516	545.764	-153.788	791.022	517.134	-354.286	891.690	202.625	-185.521	439.520	242.163	-438.202	845.279	209.871	-187.862	451.489	251.349	-392.660	910.225	45.626	-197.386	394.740	67.913	-324.299
